<svg xmlns="http://www.w3.org/2000/svg" xmlns:xlink="http://www.w3.org/1999/xlink" width="1300" zoomAndPan="magnify" viewBox="0 0 974.88 149.999998" height="200" preserveAspectRatio="xMidYMid meet" version="1.0"><defs><filter x="0%" y="0%" width="100%" height="100%" id="3a912d4ecb"><feColorMatrix values="0 0 0 0 1 0 0 0 0 1 0 0 0 0 1 0 0 0 1 0" color-interpolation-filters="sRGB"/></filter><g/><mask id="dbcd1a576d"><g filter="url(#3a912d4ecb)"><rect x="-97.488" width="1169.856" fill="#000000" y="-15" height="179.999997" fill-opacity="0.2"/></g></mask><clipPath id="593f3fc9a7"><rect x="0" width="549" y="0" height="110"/></clipPath></defs><g mask="url(#dbcd1a576d)"><g transform="matrix(1, 0, 0, 1, 213, 20)"><g clip-path="url(#593f3fc9a7)"><g fill="#d9d9d9" fill-opacity="1"><g transform="translate(0.664678, 88.189974)"><g><path d="M 40.03125 -69.703125 C 50.1875 -69.703125 58.21875 -67.160156 64.125 -62.078125 C 70.03125 -57.003906 72.984375 -49.753906 72.984375 -40.328125 L 51.984375 -40.328125 C 51.984375 -44.304688 50.9375 -47.457031 48.84375 -49.78125 C 46.75 -52.113281 43.78125 -53.28125 39.9375 -53.28125 C 35.488281 -53.28125 32.21875 -51.882812 30.125 -49.09375 C 28.03125 -46.300781 26.984375 -42.414062 26.984375 -37.4375 L 26.984375 -31.0625 C 26.984375 -26.15625 28.03125 -22.289062 30.125 -19.46875 C 32.21875 -16.644531 35.421875 -15.234375 39.734375 -15.234375 C 43.984375 -15.234375 47.203125 -16.328125 49.390625 -18.515625 C 51.578125 -20.710938 52.671875 -23.800781 52.671875 -27.78125 L 72.984375 -27.78125 C 72.984375 -18.414062 70.113281 -11.242188 64.375 -6.265625 C 58.632812 -1.296875 50.519531 1.1875 40.03125 1.1875 C 28.34375 1.1875 19.492188 -1.796875 13.484375 -7.765625 C 7.484375 -13.742188 4.484375 -22.570312 4.484375 -34.25 C 4.484375 -45.9375 7.484375 -54.765625 13.484375 -60.734375 C 19.492188 -66.710938 28.34375 -69.703125 40.03125 -69.703125 Z M 40.03125 -69.703125 "/></g></g></g><g fill="#d9d9d9" fill-opacity="1"><g transform="translate(78.130458, 88.189974)"><g><path d="M 41.421875 -69.703125 C 53.242188 -69.703125 62.375 -66.679688 68.8125 -60.640625 C 75.25 -54.597656 78.46875 -45.800781 78.46875 -34.25 C 78.46875 -22.695312 75.25 -13.898438 68.8125 -7.859375 C 62.375 -1.828125 53.242188 1.1875 41.421875 1.1875 C 29.609375 1.1875 20.5 -1.8125 14.09375 -7.8125 C 7.6875 -13.820312 4.484375 -22.632812 4.484375 -34.25 C 4.484375 -45.875 7.6875 -54.6875 14.09375 -60.6875 C 20.5 -66.695312 29.609375 -69.703125 41.421875 -69.703125 Z M 41.421875 -53.28125 C 36.710938 -53.28125 33.128906 -51.847656 30.671875 -48.984375 C 28.210938 -46.128906 26.984375 -42.28125 26.984375 -37.4375 L 26.984375 -31.0625 C 26.984375 -26.21875 28.210938 -22.367188 30.671875 -19.515625 C 33.128906 -16.660156 36.710938 -15.234375 41.421875 -15.234375 C 46.140625 -15.234375 49.742188 -16.660156 52.234375 -19.515625 C 54.722656 -22.367188 55.96875 -26.21875 55.96875 -31.0625 L 55.96875 -37.4375 C 55.96875 -42.28125 54.722656 -46.128906 52.234375 -48.984375 C 49.742188 -51.847656 46.140625 -53.28125 41.421875 -53.28125 Z M 41.421875 -53.28125 "/></g></g></g><g fill="#d9d9d9" fill-opacity="1"><g transform="translate(161.072608, 88.189974)"><g><path d="M 56.359375 0 L 27.578125 -33.265625 L 27.578125 0 L 7.375 0 L 7.375 -68.515625 L 26.59375 -68.515625 L 55.359375 -34.75 L 55.359375 -68.515625 L 75.578125 -68.515625 L 75.578125 0 Z M 56.359375 0 "/></g></g></g><g fill="#d9d9d9" fill-opacity="1"><g transform="translate(244.014758, 88.189974)"><g><path d="M 46.796875 -50.984375 L 46.796875 0 L 24.796875 0 L 24.796875 -50.984375 L 2.296875 -50.984375 L 2.296875 -68.515625 L 69.203125 -68.515625 L 69.203125 -50.984375 Z M 46.796875 -50.984375 "/></g></g></g><g fill="#d9d9d9" fill-opacity="1"><g transform="translate(315.904618, 88.189974)"><g><path d="M 53.28125 0 L 50.390625 -9.65625 L 26.390625 -9.65625 L 23.5 0 L 1 0 L 25.984375 -68.515625 L 51.578125 -68.515625 L 76.578125 0 Z M 30.96875 -25 L 45.8125 -25 L 38.640625 -49.390625 L 38.234375 -49.390625 Z M 30.96875 -25 "/></g></g></g><g fill="#d9d9d9" fill-opacity="1"><g transform="translate(393.370398, 88.189974)"><g><path d="M 46.796875 -50.984375 L 46.796875 0 L 24.796875 0 L 24.796875 -50.984375 L 2.296875 -50.984375 L 2.296875 -68.515625 L 69.203125 -68.515625 L 69.203125 -50.984375 Z M 46.796875 -50.984375 "/></g></g></g><g fill="#d9d9d9" fill-opacity="1"><g transform="translate(465.260229, 88.189974)"><g><path d="M 41.421875 -69.703125 C 53.242188 -69.703125 62.375 -66.679688 68.8125 -60.640625 C 75.25 -54.597656 78.46875 -45.800781 78.46875 -34.25 C 78.46875 -22.695312 75.25 -13.898438 68.8125 -7.859375 C 62.375 -1.828125 53.242188 1.1875 41.421875 1.1875 C 29.609375 1.1875 20.5 -1.8125 14.09375 -7.8125 C 7.6875 -13.820312 4.484375 -22.632812 4.484375 -34.25 C 4.484375 -45.875 7.6875 -54.6875 14.09375 -60.6875 C 20.5 -66.695312 29.609375 -69.703125 41.421875 -69.703125 Z M 41.421875 -53.28125 C 36.710938 -53.28125 33.128906 -51.847656 30.671875 -48.984375 C 28.210938 -46.128906 26.984375 -42.28125 26.984375 -37.4375 L 26.984375 -31.0625 C 26.984375 -26.21875 28.210938 -22.367188 30.671875 -19.515625 C 33.128906 -16.660156 36.710938 -15.234375 41.421875 -15.234375 C 46.140625 -15.234375 49.742188 -16.660156 52.234375 -19.515625 C 54.722656 -22.367188 55.96875 -26.21875 55.96875 -31.0625 L 55.96875 -37.4375 C 55.96875 -42.28125 54.722656 -46.128906 52.234375 -48.984375 C 49.742188 -51.847656 46.140625 -53.28125 41.421875 -53.28125 Z M 41.421875 -53.28125 "/></g></g></g></g></g></g></svg>