<svg xmlns="http://www.w3.org/2000/svg" xmlns:xlink="http://www.w3.org/1999/xlink" width="1300" zoomAndPan="magnify" viewBox="0 0 974.88 149.999998" height="200" preserveAspectRatio="xMidYMid meet" version="1.0"><defs><filter x="0%" y="0%" width="100%" height="100%" id="1a1c056946"><feColorMatrix values="0 0 0 0 1 0 0 0 0 1 0 0 0 0 1 0 0 0 1 0" color-interpolation-filters="sRGB"/></filter><g/><mask id="97f0568e92"><g filter="url(#1a1c056946)"><rect x="-97.488" width="1169.856" fill="#000000" y="-15" height="179.999997" fill-opacity="0.2"/></g></mask><clipPath id="c781b24df8"><rect x="0" width="682" y="0" height="110"/></clipPath></defs><g mask="url(#97f0568e92)"><g transform="matrix(1, 0, 0, 1, 147, 20)"><g clip-path="url(#c781b24df8)"><g fill="#d9d9d9" fill-opacity="1"><g transform="translate(0.250937, 88.189974)"><g><path d="M 45.8125 -68.515625 C 50.050781 -68.515625 53.832031 -67.535156 57.15625 -65.578125 C 60.476562 -63.617188 63.066406 -60.925781 64.921875 -57.5 C 66.785156 -54.082031 67.71875 -50.25 67.71875 -46 L 67.71875 -44.703125 C 67.71875 -40.460938 66.785156 -36.613281 64.921875 -33.15625 C 63.066406 -29.707031 60.476562 -27.003906 57.15625 -25.046875 C 53.832031 -23.085938 50.050781 -22.109375 45.8125 -22.109375 L 29.375 -22.109375 L 29.375 0 L 7.375 0 L 7.375 -68.515625 Z M 29.375 -38.140625 L 38.4375 -38.140625 C 40.757812 -38.140625 42.5 -38.734375 43.65625 -39.921875 C 44.820312 -41.117188 45.40625 -42.75 45.40625 -44.8125 L 45.40625 -45.609375 C 45.40625 -47.734375 44.820312 -49.375 43.65625 -50.53125 C 42.5 -51.695312 40.757812 -52.28125 38.4375 -52.28125 L 29.375 -52.28125 Z M 29.375 -38.140625 "/></g></g></g><g fill="#d9d9d9" fill-opacity="1"><g transform="translate(72.140782, 88.189974)"><g><path d="M 41.421875 -69.703125 C 53.242188 -69.703125 62.375 -66.679688 68.8125 -60.640625 C 75.25 -54.597656 78.46875 -45.800781 78.46875 -34.25 C 78.46875 -22.695312 75.25 -13.898438 68.8125 -7.859375 C 62.375 -1.828125 53.242188 1.1875 41.421875 1.1875 C 29.609375 1.1875 20.5 -1.8125 14.09375 -7.8125 C 7.6875 -13.820312 4.484375 -22.632812 4.484375 -34.25 C 4.484375 -45.875 7.6875 -54.6875 14.09375 -60.6875 C 20.5 -66.695312 29.609375 -69.703125 41.421875 -69.703125 Z M 41.421875 -53.28125 C 36.710938 -53.28125 33.128906 -51.847656 30.671875 -48.984375 C 28.210938 -46.128906 26.984375 -42.28125 26.984375 -37.4375 L 26.984375 -31.0625 C 26.984375 -26.21875 28.210938 -22.367188 30.671875 -19.515625 C 33.128906 -16.660156 36.710938 -15.234375 41.421875 -15.234375 C 46.140625 -15.234375 49.742188 -16.660156 52.234375 -19.515625 C 54.722656 -22.367188 55.96875 -26.21875 55.96875 -31.0625 L 55.96875 -37.4375 C 55.96875 -42.28125 54.722656 -46.128906 52.234375 -48.984375 C 49.742188 -51.847656 46.140625 -53.28125 41.421875 -53.28125 Z M 41.421875 -53.28125 "/></g></g></g><g fill="#d9d9d9" fill-opacity="1"><g transform="translate(155.082932, 88.189974)"><g><path d="M 72.390625 -47.5 C 72.390625 -43.3125 71.257812 -39.523438 69 -36.140625 C 66.75 -32.753906 63.46875 -30.265625 59.15625 -28.671875 L 74.390625 0 L 49.6875 0 L 37.546875 -25 L 29.375 -25 L 29.375 0 L 7.375 0 L 7.375 -68.515625 L 49.296875 -68.515625 C 54.203125 -68.515625 58.394531 -67.566406 61.875 -65.671875 C 65.363281 -63.773438 67.988281 -61.21875 69.75 -58 C 71.507812 -54.78125 72.390625 -51.28125 72.390625 -47.5 Z M 49.984375 -46.609375 C 49.984375 -48.398438 49.382812 -49.890625 48.1875 -51.078125 C 47 -52.273438 45.539062 -52.875 43.8125 -52.875 L 29.375 -52.875 L 29.375 -40.234375 L 43.8125 -40.234375 C 45.539062 -40.234375 47 -40.84375 48.1875 -42.0625 C 49.382812 -43.289062 49.984375 -44.804688 49.984375 -46.609375 Z M 49.984375 -46.609375 "/></g></g></g><g fill="#d9d9d9" fill-opacity="1"><g transform="translate(232.548712, 88.189974)"><g><path d="M 46.796875 -50.984375 L 46.796875 0 L 24.796875 0 L 24.796875 -50.984375 L 2.296875 -50.984375 L 2.296875 -68.515625 L 69.203125 -68.515625 L 69.203125 -50.984375 Z M 46.796875 -50.984375 "/></g></g></g><g fill="#d9d9d9" fill-opacity="1"><g transform="translate(304.438543, 88.189974)"><g><path d="M 8.359375 0 L 8.359375 -68.515625 L 30.375 -68.515625 L 30.375 0 Z M 8.359375 0 "/></g></g></g><g fill="#d9d9d9" fill-opacity="1"><g transform="translate(343.171434, 88.189974)"><g><path d="M 7.375 -68.515625 L 62.734375 -68.515625 L 62.734375 -52.078125 L 29.375 -52.078125 L 29.375 -40.328125 L 58.046875 -40.328125 L 58.046875 -24.59375 L 29.375 -24.59375 L 29.375 0 L 7.375 0 Z M 7.375 -68.515625 "/></g></g></g><g fill="#d9d9d9" fill-opacity="1"><g transform="translate(409.584881, 88.189974)"><g><path d="M 41.421875 -69.703125 C 53.242188 -69.703125 62.375 -66.679688 68.8125 -60.640625 C 75.25 -54.597656 78.46875 -45.800781 78.46875 -34.25 C 78.46875 -22.695312 75.25 -13.898438 68.8125 -7.859375 C 62.375 -1.828125 53.242188 1.1875 41.421875 1.1875 C 29.609375 1.1875 20.5 -1.8125 14.09375 -7.8125 C 7.6875 -13.820312 4.484375 -22.632812 4.484375 -34.25 C 4.484375 -45.875 7.6875 -54.6875 14.09375 -60.6875 C 20.5 -66.695312 29.609375 -69.703125 41.421875 -69.703125 Z M 41.421875 -53.28125 C 36.710938 -53.28125 33.128906 -51.847656 30.671875 -48.984375 C 28.210938 -46.128906 26.984375 -42.28125 26.984375 -37.4375 L 26.984375 -31.0625 C 26.984375 -26.21875 28.210938 -22.367188 30.671875 -19.515625 C 33.128906 -16.660156 36.710938 -15.234375 41.421875 -15.234375 C 46.140625 -15.234375 49.742188 -16.660156 52.234375 -19.515625 C 54.722656 -22.367188 55.96875 -26.21875 55.96875 -31.0625 L 55.96875 -37.4375 C 55.96875 -42.28125 54.722656 -46.128906 52.234375 -48.984375 C 49.742188 -51.847656 46.140625 -53.28125 41.421875 -53.28125 Z M 41.421875 -53.28125 "/></g></g></g><g fill="#d9d9d9" fill-opacity="1"><g transform="translate(492.527045, 88.189974)"><g><path d="M 7.375 -68.515625 L 29.375 -68.515625 L 29.375 -17.53125 L 64.53125 -17.53125 L 64.53125 0 L 7.375 0 Z M 7.375 -68.515625 "/></g></g></g><g fill="#d9d9d9" fill-opacity="1"><g transform="translate(558.940493, 88.189974)"><g><path d="M 8.359375 0 L 8.359375 -68.515625 L 30.375 -68.515625 L 30.375 0 Z M 8.359375 0 "/></g></g></g><g fill="#d9d9d9" fill-opacity="1"><g transform="translate(597.673383, 88.189974)"><g><path d="M 41.421875 -69.703125 C 53.242188 -69.703125 62.375 -66.679688 68.8125 -60.640625 C 75.25 -54.597656 78.46875 -45.800781 78.46875 -34.25 C 78.46875 -22.695312 75.25 -13.898438 68.8125 -7.859375 C 62.375 -1.828125 53.242188 1.1875 41.421875 1.1875 C 29.609375 1.1875 20.5 -1.8125 14.09375 -7.8125 C 7.6875 -13.820312 4.484375 -22.632812 4.484375 -34.25 C 4.484375 -45.875 7.6875 -54.6875 14.09375 -60.6875 C 20.5 -66.695312 29.609375 -69.703125 41.421875 -69.703125 Z M 41.421875 -53.28125 C 36.710938 -53.28125 33.128906 -51.847656 30.671875 -48.984375 C 28.210938 -46.128906 26.984375 -42.28125 26.984375 -37.4375 L 26.984375 -31.0625 C 26.984375 -26.21875 28.210938 -22.367188 30.671875 -19.515625 C 33.128906 -16.660156 36.710938 -15.234375 41.421875 -15.234375 C 46.140625 -15.234375 49.742188 -16.660156 52.234375 -19.515625 C 54.722656 -22.367188 55.96875 -26.21875 55.96875 -31.0625 L 55.96875 -37.4375 C 55.96875 -42.28125 54.722656 -46.128906 52.234375 -48.984375 C 49.742188 -51.847656 46.140625 -53.28125 41.421875 -53.28125 Z M 41.421875 -53.28125 "/></g></g></g></g></g></g></svg>