<svg xmlns="http://www.w3.org/2000/svg" xmlns:xlink="http://www.w3.org/1999/xlink" width="1300" zoomAndPan="magnify" viewBox="0 0 974.88 149.999998" height="200" preserveAspectRatio="xMidYMid meet" version="1.0"><defs><filter x="0%" y="0%" width="100%" height="100%" id="7a9e767abb"><feColorMatrix values="0 0 0 0 1 0 0 0 0 1 0 0 0 0 1 0 0 0 1 0" color-interpolation-filters="sRGB"/></filter><g/><mask id="37f3c0abde"><g filter="url(#7a9e767abb)"><rect x="-97.488" width="1169.856" fill="#000000" y="-15" height="179.999997" fill-opacity="0.2"/></g></mask><clipPath id="8a69a043d5"><rect x="0" width="677" y="0" height="110"/></clipPath></defs><g mask="url(#37f3c0abde)"><g transform="matrix(1, 0, 0, 1, 149, 20)"><g clip-path="url(#8a69a043d5)"><g fill="#d9d9d9" fill-opacity="1"><g transform="translate(1.079803, 88.189974)"><g><path d="M 36.140625 -69.703125 C 44.910156 -69.703125 52.113281 -67.925781 57.75 -64.375 C 63.394531 -60.820312 66.285156 -55.5625 66.421875 -48.59375 L 66.421875 -47.40625 L 45.8125 -47.40625 L 45.8125 -47.796875 C 45.8125 -49.785156 45.078125 -51.441406 43.609375 -52.765625 C 42.148438 -54.097656 39.925781 -54.765625 36.9375 -54.765625 C 34.019531 -54.765625 31.78125 -54.332031 30.21875 -53.46875 C 28.65625 -52.601562 27.875 -51.539062 27.875 -50.28125 C 27.875 -48.488281 28.9375 -47.160156 31.0625 -46.296875 C 33.1875 -45.441406 36.609375 -44.546875 41.328125 -43.609375 C 46.835938 -42.484375 51.367188 -41.304688 54.921875 -40.078125 C 58.472656 -38.847656 61.578125 -36.835938 64.234375 -34.046875 C 66.890625 -31.265625 68.25 -27.484375 68.3125 -22.703125 C 68.3125 -14.609375 65.570312 -8.601562 60.09375 -4.6875 C 54.613281 -0.769531 47.296875 1.1875 38.140625 1.1875 C 27.453125 1.1875 19.132812 -0.601562 13.1875 -4.1875 C 7.25 -7.769531 4.28125 -14.109375 4.28125 -23.203125 L 25.09375 -23.203125 C 25.09375 -19.753906 25.988281 -17.445312 27.78125 -16.28125 C 29.570312 -15.113281 32.359375 -14.53125 36.140625 -14.53125 C 38.929688 -14.53125 41.238281 -14.828125 43.0625 -15.421875 C 44.894531 -16.023438 45.8125 -17.257812 45.8125 -19.125 C 45.8125 -20.78125 44.796875 -22.019531 42.765625 -22.84375 C 40.742188 -23.675781 37.441406 -24.554688 32.859375 -25.484375 C 27.285156 -26.679688 22.671875 -27.925781 19.015625 -29.21875 C 15.367188 -30.519531 12.179688 -32.660156 9.453125 -35.640625 C 6.734375 -38.628906 5.375 -42.679688 5.375 -47.796875 C 5.375 -55.296875 8.273438 -60.820312 14.078125 -64.375 C 19.890625 -67.925781 27.242188 -69.703125 36.140625 -69.703125 Z M 36.140625 -69.703125 "/></g></g></g><g fill="#d9d9d9" fill-opacity="1"><g transform="translate(72.969648, 88.189974)"><g><path d="M 41.421875 -69.703125 C 53.242188 -69.703125 62.375 -66.679688 68.8125 -60.640625 C 75.25 -54.597656 78.46875 -45.800781 78.46875 -34.25 C 78.46875 -22.695312 75.25 -13.898438 68.8125 -7.859375 C 62.375 -1.828125 53.242188 1.1875 41.421875 1.1875 C 29.609375 1.1875 20.5 -1.8125 14.09375 -7.8125 C 7.6875 -13.820312 4.484375 -22.632812 4.484375 -34.25 C 4.484375 -45.875 7.6875 -54.6875 14.09375 -60.6875 C 20.5 -66.695312 29.609375 -69.703125 41.421875 -69.703125 Z M 41.421875 -53.28125 C 36.710938 -53.28125 33.128906 -51.847656 30.671875 -48.984375 C 28.210938 -46.128906 26.984375 -42.28125 26.984375 -37.4375 L 26.984375 -31.0625 C 26.984375 -26.21875 28.210938 -22.367188 30.671875 -19.515625 C 33.128906 -16.660156 36.710938 -15.234375 41.421875 -15.234375 C 46.140625 -15.234375 49.742188 -16.660156 52.234375 -19.515625 C 54.722656 -22.367188 55.96875 -26.21875 55.96875 -31.0625 L 55.96875 -37.4375 C 55.96875 -42.28125 54.722656 -46.128906 52.234375 -48.984375 C 49.742188 -51.847656 46.140625 -53.28125 41.421875 -53.28125 Z M 41.421875 -53.28125 "/></g></g></g><g fill="#d9d9d9" fill-opacity="1"><g transform="translate(155.911798, 88.189974)"><g><path d="M 52.96875 -68.515625 C 56.425781 -68.515625 59.597656 -67.800781 62.484375 -66.375 C 65.367188 -64.945312 67.65625 -62.9375 69.34375 -60.34375 C 71.039062 -57.75 71.890625 -54.863281 71.890625 -51.6875 C 71.890625 -43.25 68.070312 -37.9375 60.4375 -35.75 L 60.4375 -35.34375 C 69.132812 -33.351562 73.484375 -27.644531 73.484375 -18.21875 C 73.484375 -14.632812 72.601562 -11.460938 70.84375 -8.703125 C 69.09375 -5.953125 66.6875 -3.8125 63.625 -2.28125 C 60.570312 -0.757812 57.222656 0 53.578125 0 L 7.375 0 L 7.375 -68.515625 Z M 29.375 -41.828125 L 44.515625 -41.828125 C 45.972656 -41.828125 47.179688 -42.335938 48.140625 -43.359375 C 49.109375 -44.390625 49.59375 -45.671875 49.59375 -47.203125 L 49.59375 -48.203125 C 49.59375 -49.660156 49.09375 -50.898438 48.09375 -51.921875 C 47.101562 -52.953125 45.910156 -53.46875 44.515625 -53.46875 L 29.375 -53.46875 Z M 29.375 -15.9375 L 46.109375 -15.9375 C 47.566406 -15.9375 48.773438 -16.445312 49.734375 -17.46875 C 50.703125 -18.5 51.1875 -19.78125 51.1875 -21.3125 L 51.1875 -22.3125 C 51.1875 -23.832031 50.703125 -25.109375 49.734375 -26.140625 C 48.773438 -27.171875 47.566406 -27.6875 46.109375 -27.6875 L 29.375 -27.6875 Z M 29.375 -15.9375 "/></g></g></g><g fill="#d9d9d9" fill-opacity="1"><g transform="translate(233.377578, 88.189974)"><g><path d="M 72.390625 -47.5 C 72.390625 -43.3125 71.257812 -39.523438 69 -36.140625 C 66.75 -32.753906 63.46875 -30.265625 59.15625 -28.671875 L 74.390625 0 L 49.6875 0 L 37.546875 -25 L 29.375 -25 L 29.375 0 L 7.375 0 L 7.375 -68.515625 L 49.296875 -68.515625 C 54.203125 -68.515625 58.394531 -67.566406 61.875 -65.671875 C 65.363281 -63.773438 67.988281 -61.21875 69.75 -58 C 71.507812 -54.78125 72.390625 -51.28125 72.390625 -47.5 Z M 49.984375 -46.609375 C 49.984375 -48.398438 49.382812 -49.890625 48.1875 -51.078125 C 47 -52.273438 45.539062 -52.875 43.8125 -52.875 L 29.375 -52.875 L 29.375 -40.234375 L 43.8125 -40.234375 C 45.539062 -40.234375 47 -40.84375 48.1875 -42.0625 C 49.382812 -43.289062 49.984375 -44.804688 49.984375 -46.609375 Z M 49.984375 -46.609375 "/></g></g></g><g fill="#d9d9d9" fill-opacity="1"><g transform="translate(310.843358, 88.189974)"><g><path d="M 7.375 -68.515625 L 66.625 -68.515625 L 66.625 -52.078125 L 29.375 -52.078125 L 29.375 -42.625 L 61.234375 -42.625 L 61.234375 -26.890625 L 29.375 -26.890625 L 29.375 -16.4375 L 67.3125 -16.4375 L 67.3125 0 L 7.375 0 Z M 7.375 -68.515625 "/></g></g></g><g fill="#d9d9d9" fill-opacity="1"><g transform="translate(382.733189, 88.189974)"><g/></g></g><g fill="#d9d9d9" fill-opacity="1"><g transform="translate(415.89013, 88.189974)"><g><path d="M 66.21875 0 L 66.21875 -24.703125 C 66.21875 -27.753906 66.332031 -30.890625 66.5625 -34.109375 C 66.800781 -37.328125 67.050781 -40.03125 67.3125 -42.21875 C 67.582031 -44.40625 67.75 -45.800781 67.8125 -46.40625 L 67.421875 -46.40625 L 54.765625 0 L 37.546875 0 L 24.796875 -46.296875 L 24.390625 -46.296875 C 24.460938 -45.703125 24.644531 -44.328125 24.9375 -42.171875 C 25.238281 -40.015625 25.519531 -37.328125 25.78125 -34.109375 C 26.050781 -30.890625 26.1875 -27.753906 26.1875 -24.703125 L 26.1875 0 L 5.96875 0 L 5.96875 -68.515625 L 37.046875 -68.515625 L 47.40625 -28.984375 L 47.796875 -28.984375 L 58.046875 -68.515625 L 88.03125 -68.515625 L 88.03125 0 Z M 66.21875 0 "/></g></g></g><g fill="#d9d9d9" fill-opacity="1"><g transform="translate(509.884571, 88.189974)"><g><path d="M 8.359375 0 L 8.359375 -68.515625 L 30.375 -68.515625 L 30.375 0 Z M 8.359375 0 "/></g></g></g><g fill="#d9d9d9" fill-opacity="1"><g transform="translate(548.617461, 88.189974)"><g><path d="M 66.21875 0 L 66.21875 -24.703125 C 66.21875 -27.753906 66.332031 -30.890625 66.5625 -34.109375 C 66.800781 -37.328125 67.050781 -40.03125 67.3125 -42.21875 C 67.582031 -44.40625 67.75 -45.800781 67.8125 -46.40625 L 67.421875 -46.40625 L 54.765625 0 L 37.546875 0 L 24.796875 -46.296875 L 24.390625 -46.296875 C 24.460938 -45.703125 24.644531 -44.328125 24.9375 -42.171875 C 25.238281 -40.015625 25.519531 -37.328125 25.78125 -34.109375 C 26.050781 -30.890625 26.1875 -27.753906 26.1875 -24.703125 L 26.1875 0 L 5.96875 0 L 5.96875 -68.515625 L 37.046875 -68.515625 L 47.40625 -28.984375 L 47.796875 -28.984375 L 58.046875 -68.515625 L 88.03125 -68.515625 L 88.03125 0 Z M 66.21875 0 "/></g></g></g><g fill="#d9d9d9" fill-opacity="1"><g transform="translate(642.614879, 88.189974)"><g/></g></g></g></g></g></svg>