<svg xmlns="http://www.w3.org/2000/svg" xmlns:xlink="http://www.w3.org/1999/xlink" width="1300" zoomAndPan="magnify" viewBox="0 0 974.88 149.999998" height="200" preserveAspectRatio="xMidYMid meet" version="1.0"><defs><filter x="0%" y="0%" width="100%" height="100%" id="4ba8a21a2d"><feColorMatrix values="0 0 0 0 1 0 0 0 0 1 0 0 0 0 1 0 0 0 1 0" color-interpolation-filters="sRGB"/></filter><g/><mask id="73bd91baa5"><g filter="url(#4ba8a21a2d)"><rect x="-97.488" width="1169.856" fill="#000000" y="-15" height="179.999997" fill-opacity="0.2"/></g></mask><clipPath id="8c7731eed5"><rect x="0" width="527" y="0" height="110"/></clipPath></defs><g mask="url(#73bd91baa5)"><g transform="matrix(1, 0, 0, 1, 224, 20)"><g clip-path="url(#8c7731eed5)"><g fill="#d9d9d9" fill-opacity="1"><g transform="translate(0.721642, 88.189974)"><g><path d="M 46.796875 -50.984375 L 46.796875 0 L 24.796875 0 L 24.796875 -50.984375 L 2.296875 -50.984375 L 2.296875 -68.515625 L 69.203125 -68.515625 L 69.203125 -50.984375 Z M 46.796875 -50.984375 "/></g></g></g><g fill="#d9d9d9" fill-opacity="1"><g transform="translate(72.611487, 88.189974)"><g><path d="M 53.28125 0 L 50.390625 -9.65625 L 26.390625 -9.65625 L 23.5 0 L 1 0 L 25.984375 -68.515625 L 51.578125 -68.515625 L 76.578125 0 Z M 30.96875 -25 L 45.8125 -25 L 38.640625 -49.390625 L 38.234375 -49.390625 Z M 30.96875 -25 "/></g></g></g><g fill="#d9d9d9" fill-opacity="1"><g transform="translate(150.077267, 88.189974)"><g><path d="M 7.375 -68.515625 L 29.375 -68.515625 L 29.375 -17.53125 L 64.53125 -17.53125 L 64.53125 0 L 7.375 0 Z M 7.375 -68.515625 "/></g></g></g><g fill="#d9d9d9" fill-opacity="1"><g transform="translate(216.490728, 88.189974)"><g><path d="M 7.375 -68.515625 L 66.625 -68.515625 L 66.625 -52.078125 L 29.375 -52.078125 L 29.375 -42.625 L 61.234375 -42.625 L 61.234375 -26.890625 L 29.375 -26.890625 L 29.375 -16.4375 L 67.3125 -16.4375 L 67.3125 0 L 7.375 0 Z M 7.375 -68.515625 "/></g></g></g><g fill="#d9d9d9" fill-opacity="1"><g transform="translate(288.380588, 88.189974)"><g><path d="M 56.359375 0 L 27.578125 -33.265625 L 27.578125 0 L 7.375 0 L 7.375 -68.515625 L 26.59375 -68.515625 L 55.359375 -34.75 L 55.359375 -68.515625 L 75.578125 -68.515625 L 75.578125 0 Z M 56.359375 0 "/></g></g></g><g fill="#d9d9d9" fill-opacity="1"><g transform="translate(371.322752, 88.189974)"><g><path d="M 46.796875 -50.984375 L 46.796875 0 L 24.796875 0 L 24.796875 -50.984375 L 2.296875 -50.984375 L 2.296875 -68.515625 L 69.203125 -68.515625 L 69.203125 -50.984375 Z M 46.796875 -50.984375 "/></g></g></g><g fill="#d9d9d9" fill-opacity="1"><g transform="translate(443.212583, 88.189974)"><g><path d="M 41.421875 -69.703125 C 53.242188 -69.703125 62.375 -66.679688 68.8125 -60.640625 C 75.25 -54.597656 78.46875 -45.800781 78.46875 -34.25 C 78.46875 -22.695312 75.25 -13.898438 68.8125 -7.859375 C 62.375 -1.828125 53.242188 1.1875 41.421875 1.1875 C 29.609375 1.1875 20.5 -1.8125 14.09375 -7.8125 C 7.6875 -13.820312 4.484375 -22.632812 4.484375 -34.25 C 4.484375 -45.875 7.6875 -54.6875 14.09375 -60.6875 C 20.5 -66.695312 29.609375 -69.703125 41.421875 -69.703125 Z M 41.421875 -53.28125 C 36.710938 -53.28125 33.128906 -51.847656 30.671875 -48.984375 C 28.210938 -46.128906 26.984375 -42.28125 26.984375 -37.4375 L 26.984375 -31.0625 C 26.984375 -26.21875 28.210938 -22.367188 30.671875 -19.515625 C 33.128906 -16.660156 36.710938 -15.234375 41.421875 -15.234375 C 46.140625 -15.234375 49.742188 -16.660156 52.234375 -19.515625 C 54.722656 -22.367188 55.96875 -26.21875 55.96875 -31.0625 L 55.96875 -37.4375 C 55.96875 -42.28125 54.722656 -46.128906 52.234375 -48.984375 C 49.742188 -51.847656 46.140625 -53.28125 41.421875 -53.28125 Z M 41.421875 -53.28125 "/></g></g></g></g></g></g></svg>